<?xml version="1.0" encoding="utf-8"?>
<!-- Generator: Adobe Illustrator 24.1.2, SVG Export Plug-In . SVG Version: 6.00 Build 0)  -->
<svg version="1.1" id="Camada_1" xmlns="http://www.w3.org/2000/svg" xmlns:xlink="http://www.w3.org/1999/xlink" x="0px" y="0px"
	 viewBox="0 0 31.9 32" style="enable-background:new 0 0 31.9 32;" xml:space="preserve">
<style type="text/css">
	.st0{fill:#A80532;}
	.st1{fill:#FFFFFF;}
</style>
<rect x="-0.1" class="st0" width="32" height="32"/>
<g>
	<path class="st1" d="M22.9,13.7c0,0.1,0,0.1,0,0.1c0,0.4,0,0.8,0,1.2c0,0.3-0.1,0.7-0.1,1c0,0.5-0.1,1-0.1,1.4c0,0.5,0,0.9,0,1.3
		c0,0.4,0.3,0.7,0.6,0.8c0.1,0,0.1,0.1,0.1,0.1c0,0.1,0,0.3,0,0.4c0,0.1,0,0.1-0.1,0.1c-0.6,0-1.3,0-1.9,0c-0.1,0-0.1,0-0.1-0.1
		c0-0.1,0-0.3,0-0.4c0-0.1,0-0.1,0.1-0.2c0.2-0.1,0.3-0.2,0.4-0.4c0.1-0.2,0.1-0.5,0.1-0.7c0-0.2,0.1-0.5,0.1-0.7
		c0-0.5,0.1-0.9,0.1-1.3c0-0.2,0.1-0.5,0.1-0.7c0-0.4,0.1-0.9,0.1-1.3c0-0.3,0.1-0.6,0.1-0.9c0-0.3,0-0.6-0.2-0.8
		c-0.1-0.2-0.2-0.3-0.4-0.4c-0.1,0-0.1-0.1-0.1-0.2c0-0.1,0-0.2,0-0.3c0-0.1,0-0.1,0.1-0.1c0.9,0,1.7,0,2.6,0c0,0,0.1,0,0.1,0
		c0.1,0,0.1,0,0.1,0.1c0,0.3,0,0.6,0.1,0.9c0.1,0.4,0.2,0.7,0.3,1.1c0.1,0.3,0.2,0.6,0.3,0.9c0,0.1,0,0.2,0.1,0.2
		c0.1,0.2,0.1,0.3,0.2,0.5c0.1,0.2,0.1,0.4,0.2,0.6c0,0.1,0.1,0.3,0.1,0.4c0,0.1,0,0.2,0.1,0.3c0,0,0.1,0.1,0.1,0.1
		c0,0,0.1-0.1,0.1-0.1c0.1-0.3,0.2-0.6,0.3-0.9c0.1-0.2,0.1-0.4,0.2-0.6c0.1-0.2,0.1-0.3,0.1-0.5c0.1-0.2,0.1-0.4,0.2-0.6
		c0-0.1,0.1-0.2,0.1-0.3c0.1-0.3,0.2-0.6,0.2-0.9c0.1-0.3,0.1-0.6,0.1-0.9c0-0.1,0-0.1,0.1-0.1c0.9,0,1.7,0,2.6,0
		c0.1,0,0.1,0,0.1,0.1c0,0.1,0,0.3,0,0.4c0,0.1,0,0.1-0.1,0.1c-0.1,0.1-0.3,0.1-0.4,0.2c-0.1,0.1-0.1,0.2-0.1,0.3
		c-0.1,0.2-0.1,0.3-0.1,0.5c0,0.4,0.1,0.9,0.1,1.3c0,0.2,0,0.3,0,0.5c0,0.2,0.1,0.5,0.1,0.7c0,0.5,0.1,1,0.1,1.5
		c0,0.1,0,0.2,0.1,0.4c0,0.2,0,0.3,0,0.5c0,0.2,0,0.5,0.1,0.7c0,0.2,0.1,0.5,0.3,0.6c0.1,0.1,0.2,0.1,0.3,0.2c0,0,0.1,0.1,0.1,0.1
		c0,0.1,0,0.3,0,0.4c0,0.1,0,0.1-0.1,0.1c-1,0-2,0-2.9,0c-0.1,0-0.2,0-0.3,0c-0.1,0-0.1,0-0.1-0.1c0-0.1,0-0.3,0-0.4
		c0-0.1,0-0.1,0.1-0.2c0.1-0.1,0.2-0.2,0.3-0.3c0.1-0.1,0.2-0.3,0.2-0.6c0.1-0.4,0-0.9,0-1.3c0-0.1,0-0.3,0-0.4c0-0.2,0-0.5-0.1-0.7
		c0-0.3,0-0.5,0-0.8c0-0.4-0.1-0.7-0.1-1.1c0-0.1,0-0.2,0-0.3c0-0.1,0-0.1,0-0.2c0,0,0,0,0-0.1c0,0,0,0,0,0.1
		c-0.1,0.4-0.2,0.8-0.3,1.1c-0.1,0.2-0.1,0.4-0.2,0.6c-0.1,0.5-0.3,0.9-0.4,1.4c-0.1,0.3-0.2,0.6-0.3,0.9C26,18,26,18.2,25.9,18.3
		c-0.1,0.2-0.1,0.5-0.2,0.7c-0.1,0.2-0.1,0.3-0.1,0.5c0,0.2-0.1,0.3-0.1,0.5c0,0.1-0.1,0.2-0.2,0.2c-0.1,0-0.3,0-0.4,0
		c-0.1,0-0.1,0-0.1-0.1c0-0.2-0.1-0.5-0.1-0.7c0-0.2-0.1-0.3-0.1-0.5c0-0.1,0-0.1-0.1-0.2c-0.1-0.2-0.1-0.5-0.2-0.7
		c-0.1-0.2-0.1-0.3-0.1-0.5c-0.1-0.2-0.1-0.5-0.2-0.7c0-0.2-0.1-0.3-0.1-0.5c0,0,0,0,0-0.1c-0.1-0.2-0.1-0.3-0.1-0.5
		c0-0.1-0.1-0.3-0.1-0.4c-0.1-0.2-0.1-0.5-0.2-0.7c-0.1-0.3-0.1-0.6-0.2-0.9C23,13.8,23,13.7,22.9,13.7z"/>
	<path class="st1" d="M16,11.7c0.5,0,1.1,0,1.6,0c0.4,0,0.7,0,1.1,0.1c0.5,0.1,0.9,0.3,1.3,0.6c0.3,0.2,0.5,0.5,0.6,0.9
		c0.1,0.2,0.1,0.4,0.2,0.7c0.1,0.3,0,0.6-0.1,0.9c0,0.2-0.2,0.4-0.2,0.6c-0.2,0.4-0.5,0.6-0.8,0.9c-0.2,0.1-0.4,0.2-0.6,0.2
		c-0.3,0.1-0.6,0.1-0.9,0.1c-0.2,0-0.4,0-0.5-0.1c-0.2-0.1-0.2-0.3-0.2-0.5c0-0.1,0.1-0.1,0.2-0.1c0.2,0,0.4,0,0.6-0.1
		c0.1-0.1,0.2-0.2,0.3-0.4c0.1-0.3,0.1-0.6,0.1-0.9c0-0.4,0-0.7-0.1-1.1c0-0.1-0.1-0.3-0.1-0.4c0-0.1-0.1-0.2-0.1-0.2
		c-0.1-0.2-0.2-0.3-0.4-0.4c-0.1-0.1-0.3-0.1-0.4-0.1c-0.2,0-0.3,0-0.5,0c-0.1,0-0.1,0-0.1,0.1c0,0.5,0,0.9,0,1.3c0,1.6,0,3.2,0,4.8
		c0,0.2,0,0.4,0.1,0.6c0.1,0.2,0.2,0.3,0.4,0.4c0.1,0,0.2,0.1,0.3,0.1c0,0,0.1,0.1,0.1,0.1c0,0.1,0,0.3,0,0.5c0,0.1,0,0.1-0.1,0.1
		c-0.1,0-0.2,0-0.3,0c-1,0-2.1,0-3.1,0c-0.1,0-0.1,0-0.1-0.1c0-0.1,0-0.3,0-0.5c0,0,0.1-0.1,0.1-0.1c0.4-0.1,0.6-0.4,0.6-0.8
		c0-1.9,0-3.8,0-5.7c0-0.2-0.1-0.4-0.2-0.6c-0.1-0.1-0.2-0.1-0.3-0.2c-0.1,0-0.1-0.1-0.1-0.1c0-0.1,0-0.3,0-0.4c0-0.1,0-0.1,0.1-0.1
		C14.9,11.7,15.4,11.7,16,11.7L16,11.7z"/>
	<path class="st1" d="M4.5,11.7c0.9,0,1.9,0,2.8,0c0.1,0,0.1,0,0.1,0.1c0,0.4,0,0.7,0,1.1c0,0.2,0,0.3,0,0.5c0,0.1,0,0.1-0.1,0.1
		c-0.2,0-0.5,0-0.7,0c0,0-0.1,0-0.1-0.1c-0.1-0.2-0.3-0.4-0.4-0.6c-0.1-0.1-0.2-0.2-0.3-0.3c0,0-0.1-0.1-0.1-0.1
		c-0.1-0.1-0.3-0.1-0.5-0.2c-0.2,0-0.5,0-0.7,0c-0.1,0-0.1,0-0.1,0.1c0,0.8,0,1.7,0,2.5c0,0.1,0,0.2,0,0.3c0,0.1,0,0.1,0.1,0.1
		c0.2,0,0.3-0.1,0.5-0.1c0.2,0,0.3-0.1,0.5-0.2c0.2-0.1,0.3-0.3,0.4-0.5c0-0.1,0-0.1,0.1-0.1c0,0,0.1-0.1,0.1-0.1c0.2,0,0.4,0,0.6,0
		c0.1,0,0.1,0,0.1,0.1c0,0.8,0,1.6,0,2.4c0,0,0,0,0,0.1c0,0.2,0,0.2-0.2,0.2c-0.2,0-0.3,0-0.5,0c-0.1,0-0.1-0.1-0.2-0.2
		c-0.1-0.3-0.2-0.5-0.4-0.7c-0.2-0.1-0.4-0.2-0.6-0.2c-0.1,0-0.2,0-0.3-0.1c-0.1,0-0.2,0-0.2,0.1c0,0.6,0,1.1,0,1.7
		c0,0.3,0,0.6,0,0.9c0,0.2,0.1,0.3,0.1,0.5c0.1,0.2,0.2,0.3,0.5,0.3c0.2,0.1,0.5,0,0.7-0.1c0.2-0.1,0.3-0.2,0.5-0.4
		c0.2-0.2,0.4-0.5,0.5-0.8c0-0.1,0.1-0.1,0.1-0.2C6.7,18,6.7,18,6.8,18c0.2,0,0.4,0,0.6,0c0.1,0,0.1,0,0.1,0.1c0,0.3-0.1,0.7-0.1,1
		c0,0.3-0.1,0.6-0.1,0.8c0,0.1,0,0.2-0.2,0.2c-1.8,0-3.6,0-5.5,0c-0.2,0-0.2,0-0.2-0.2c0-0.1,0-0.2,0-0.3c0-0.1,0-0.1,0.1-0.1
		c0.4-0.1,0.6-0.4,0.6-0.7c0-1.7,0-3.4,0-5.1c0-0.3,0-0.6,0-0.9c0-0.2-0.1-0.3-0.2-0.4c-0.1-0.1-0.3-0.1-0.4-0.1
		c-0.1,0-0.1-0.1-0.1-0.1c0-0.1,0-0.3,0-0.4c0-0.1,0-0.1,0.1-0.1C2.6,11.7,3.5,11.7,4.5,11.7L4.5,11.7z"/>
	<path class="st1" d="M8.8,17.7c0.1,0,0.3,0,0.4,0c0,0,0.1,0,0.1,0.1c0.1,0.3,0.2,0.5,0.3,0.8c0.1,0.2,0.2,0.4,0.3,0.7
		c0.1,0.2,0.2,0.3,0.4,0.4c0.1,0.1,0.2,0.1,0.4,0.2c0.1,0,0.3,0,0.4,0c0,0,0.1,0,0.1,0c0.2-0.1,0.3-0.3,0.4-0.5
		c0.1-0.3,0.1-0.6,0-0.9c-0.1-0.3-0.3-0.5-0.5-0.8c-0.3-0.3-0.6-0.6-0.9-0.9c-0.3-0.3-0.6-0.6-0.9-0.9c-0.3-0.3-0.5-0.7-0.7-1.1
		c-0.1-0.3-0.2-0.7-0.2-1c0-0.3,0.1-0.6,0.2-0.9C8.7,12.4,9,12.2,9.3,12c0.3-0.2,0.7-0.3,1.1-0.4c0.3,0,0.6,0,0.9,0.1
		c0.2,0,0.4,0.1,0.6,0.2c0.2,0.1,0.4,0.2,0.6,0.3c0.1,0.1,0.3,0.2,0.4,0.3c0,0,0,0.1,0,0.1c0,0.5,0,1.1,0,1.6c0,0.1,0,0.1-0.1,0.1
		c-0.2,0-0.4,0-0.5,0c-0.1,0-0.1,0-0.2-0.1c0-0.4-0.2-0.7-0.3-1c-0.1-0.3-0.3-0.5-0.5-0.7c-0.3-0.2-0.6-0.3-1-0.2
		c-0.2,0.1-0.4,0.3-0.4,0.6c-0.1,0.4,0.1,0.7,0.4,1c0.3,0.4,0.6,0.7,1,1c0.4,0.4,0.8,0.9,1.2,1.3c0.3,0.3,0.5,0.7,0.7,1.1
		c0.1,0.2,0.1,0.5,0.1,0.7c0,0.3-0.1,0.6-0.2,0.9c-0.1,0.3-0.3,0.6-0.6,0.9c-0.3,0.3-0.7,0.4-1,0.5c-0.3,0.1-0.6,0.1-0.9,0.1
		c-0.2,0-0.4-0.1-0.6-0.1c-0.3,0-0.6-0.1-0.9-0.2C9,20.1,8.8,20,8.7,20c0,0-0.1,0-0.1,0c-0.1-0.1-0.1-0.1-0.1-0.2c0-0.2,0-0.4,0-0.7
		c0-0.3,0-0.7,0-1c0-0.1,0-0.2,0-0.2c0-0.1,0-0.1,0.1-0.1C8.6,17.7,8.7,17.7,8.8,17.7C8.8,17.7,8.8,17.7,8.8,17.7z"/>
</g>
</svg>
